<svg width="163" height="48" viewBox="0 0 163 48" fill="none" xmlns="http://www.w3.org/2000/svg">
<rect width="163" height="48" rx="5" fill="#150C01"/>
<path d="M69.5234 27.3516H65.1172L64.1953 30H62.1406L66.4375 18.625H68.2109L72.5156 30H70.4531L69.5234 27.3516ZM65.6719 25.7578H68.9688L67.3203 21.0391L65.6719 25.7578ZM80.6562 25.8594C80.6562 27.1667 80.3594 28.2109 79.7656 28.9922C79.1719 29.7682 78.375 30.1562 77.375 30.1562C76.4479 30.1562 75.7057 29.8516 75.1484 29.2422V33.25H73.25V21.5469H75L75.0781 22.4062C75.6354 21.7292 76.3932 21.3906 77.3516 21.3906C78.3828 21.3906 79.1901 21.776 79.7734 22.5469C80.362 23.3125 80.6562 24.3776 80.6562 25.7422V25.8594ZM78.7656 25.6953C78.7656 24.8516 78.5964 24.1823 78.2578 23.6875C77.9245 23.1927 77.4453 22.9453 76.8203 22.9453C76.0443 22.9453 75.487 23.2656 75.1484 23.9062V27.6562C75.4922 28.3125 76.0547 28.6406 76.8359 28.6406C77.4401 28.6406 77.9115 28.3984 78.25 27.9141C78.5938 27.4245 78.7656 26.6849 78.7656 25.6953ZM89.6719 25.8594C89.6719 27.1667 89.375 28.2109 88.7812 28.9922C88.1875 29.7682 87.3906 30.1562 86.3906 30.1562C85.4635 30.1562 84.7214 29.8516 84.1641 29.2422V33.25H82.2656V21.5469H84.0156L84.0938 22.4062C84.651 21.7292 85.4089 21.3906 86.3672 21.3906C87.3984 21.3906 88.2057 21.776 88.7891 22.5469C89.3776 23.3125 89.6719 24.3776 89.6719 25.7422V25.8594ZM87.7812 25.6953C87.7812 24.8516 87.612 24.1823 87.2734 23.6875C86.9401 23.1927 86.4609 22.9453 85.8359 22.9453C85.0599 22.9453 84.5026 23.2656 84.1641 23.9062V27.6562C84.5078 28.3125 85.0703 28.6406 85.8516 28.6406C86.4557 28.6406 86.9271 28.3984 87.2656 27.9141C87.6094 27.4245 87.7812 26.6849 87.7812 25.6953ZM101.398 27.0703C101.398 26.5703 101.221 26.1849 100.867 25.9141C100.518 25.6432 99.8854 25.3698 98.9688 25.0938C98.0521 24.8177 97.3229 24.5104 96.7812 24.1719C95.7448 23.5208 95.2266 22.6719 95.2266 21.625C95.2266 20.7083 95.599 19.9531 96.3438 19.3594C97.0938 18.7656 98.0651 18.4688 99.2578 18.4688C100.049 18.4688 100.755 18.6146 101.375 18.9062C101.995 19.1979 102.482 19.6146 102.836 20.1562C103.19 20.6927 103.367 21.2891 103.367 21.9453H101.398C101.398 21.3516 101.211 20.888 100.836 20.5547C100.466 20.2161 99.9349 20.0469 99.2422 20.0469C98.5964 20.0469 98.0938 20.1849 97.7344 20.4609C97.3802 20.737 97.2031 21.1224 97.2031 21.6172C97.2031 22.0339 97.3958 22.3828 97.7812 22.6641C98.1667 22.9401 98.8021 23.2109 99.6875 23.4766C100.573 23.737 101.284 24.0365 101.82 24.375C102.357 24.7083 102.75 25.0938 103 25.5312C103.25 25.9635 103.375 26.4714 103.375 27.0547C103.375 28.0026 103.01 28.7578 102.281 29.3203C101.557 29.8776 100.573 30.1562 99.3281 30.1562C98.5052 30.1562 97.7474 30.0052 97.0547 29.7031C96.3672 29.3958 95.8307 28.974 95.4453 28.4375C95.0651 27.901 94.875 27.276 94.875 26.5625H96.8516C96.8516 27.2083 97.0651 27.7083 97.4922 28.0625C97.9193 28.4167 98.5312 28.5938 99.3281 28.5938C100.016 28.5938 100.531 28.4557 100.875 28.1797C101.224 27.8984 101.398 27.5286 101.398 27.0703ZM107.305 19.4922V21.5469H108.797V22.9531H107.305V27.6719C107.305 27.9948 107.367 28.2292 107.492 28.375C107.622 28.5156 107.852 28.5859 108.18 28.5859C108.398 28.5859 108.62 28.5599 108.844 28.5078V29.9766C108.411 30.0964 107.995 30.1562 107.594 30.1562C106.135 30.1562 105.406 29.3516 105.406 27.7422V22.9531H104.016V21.5469H105.406V19.4922H107.305ZM109.664 25.6953C109.664 24.8672 109.828 24.1224 110.156 23.4609C110.484 22.7943 110.945 22.2839 111.539 21.9297C112.133 21.5703 112.815 21.3906 113.586 21.3906C114.727 21.3906 115.651 21.7578 116.359 22.4922C117.073 23.2266 117.458 24.2005 117.516 25.4141L117.523 25.8594C117.523 26.6927 117.362 27.4375 117.039 28.0938C116.721 28.75 116.263 29.2578 115.664 29.6172C115.07 29.9766 114.383 30.1562 113.602 30.1562C112.409 30.1562 111.453 29.7604 110.734 28.9688C110.021 28.1719 109.664 27.112 109.664 25.7891V25.6953ZM111.562 25.8594C111.562 26.7292 111.742 27.4115 112.102 27.9062C112.461 28.3958 112.961 28.6406 113.602 28.6406C114.242 28.6406 114.74 28.3906 115.094 27.8906C115.453 27.3906 115.633 26.6589 115.633 25.6953C115.633 24.8411 115.448 24.1641 115.078 23.6641C114.714 23.1641 114.216 22.9141 113.586 22.9141C112.966 22.9141 112.474 23.1615 112.109 23.6562C111.745 24.1458 111.562 24.8802 111.562 25.8594ZM123.555 23.2812C123.305 23.2396 123.047 23.2188 122.781 23.2188C121.911 23.2188 121.326 23.5521 121.023 24.2188V30H119.125V21.5469H120.938L120.984 22.4922C121.443 21.7578 122.078 21.3906 122.891 21.3906C123.161 21.3906 123.385 21.4271 123.562 21.5L123.555 23.2812ZM128.32 30.1562C127.117 30.1562 126.141 29.7786 125.391 29.0234C124.646 28.263 124.273 27.2526 124.273 25.9922V25.7578C124.273 24.9141 124.435 24.1615 124.758 23.5C125.086 22.8333 125.544 22.3151 126.133 21.9453C126.721 21.5755 127.378 21.3906 128.102 21.3906C129.253 21.3906 130.141 21.7578 130.766 22.4922C131.396 23.2266 131.711 24.2656 131.711 25.6094V26.375H126.188C126.245 27.0729 126.477 27.625 126.883 28.0312C127.294 28.4375 127.81 28.6406 128.43 28.6406C129.299 28.6406 130.008 28.2891 130.555 27.5859L131.578 28.5625C131.24 29.0677 130.786 29.4609 130.219 29.7422C129.656 30.0182 129.023 30.1562 128.32 30.1562ZM128.094 22.9141C127.573 22.9141 127.151 23.0964 126.828 23.4609C126.51 23.8255 126.307 24.3333 126.219 24.9844H129.836V24.8438C129.794 24.2083 129.625 23.7292 129.328 23.4062C129.031 23.0781 128.62 22.9141 128.094 22.9141Z" fill="white"/>
<g clip-path="url(#clip0_26_509)">
<path d="M44.8717 15.1197C45.6998 14.1188 46.2818 12.7593 46.2526 11.3746C46.2477 11.1421 46.0356 10.9694 45.8056 11.0045C44.5906 11.1902 43.2324 11.9512 42.3916 12.9354C41.6168 13.8314 40.9291 15.2237 40.9808 16.6034C40.9885 16.8113 41.1642 16.977 41.3721 16.9711C42.7132 16.9331 44.0372 16.1301 44.8717 15.1197Z" fill="#D6D6D8"/>
<path d="M42.0271 16.6034C41.9469 14.4644 43.5607 11.9661 46.1801 11.1606C46.0979 11.0476 45.9558 10.9816 45.8057 11.0045C44.5906 11.1902 43.2324 11.9511 42.3916 12.9354C41.6168 13.8314 40.929 15.2237 40.9808 16.6034C40.9885 16.8113 41.1642 16.977 41.3721 16.9711C41.6322 16.9637 41.8915 16.9273 42.1468 16.8665C42.0765 16.7998 42.031 16.7068 42.0271 16.6034Z" fill="#C2C2C4"/>
<path d="M51.3442 29.9266C50.5023 29.5028 48.1789 28.04 48.1501 24.796C48.1256 22.1405 49.8877 20.5964 50.6373 20.0572C50.8152 19.9292 50.8543 19.6787 50.719 19.5062C50.0962 18.7123 49.3679 18.203 48.6684 17.8728C48.6688 17.8728 48.6693 17.8727 48.6697 17.8726C48.5791 17.8298 48.424 17.7619 48.2998 17.713C44.7796 16.3273 42.5612 18.4512 41.2174 18.4512C40.1885 18.4512 38.6008 17.2887 36.9186 17.3204C34.7082 17.3525 32.6722 18.6063 31.5323 20.5848C29.7835 23.6202 30.3602 27.7696 31.7227 31.0034C31.7227 31.0035 31.7227 31.0035 31.7227 31.0036C31.7575 31.0863 31.8131 31.215 31.8594 31.319C31.8595 31.3189 31.8595 31.3188 31.8595 31.3187C32.2542 32.2051 32.7061 33.0152 33.1822 33.7038C34.2754 35.2839 35.5795 37.0638 37.293 36.9984C38.9422 36.933 39.5657 35.9321 41.5588 35.9321C43.5506 35.9321 44.1124 36.9984 45.8562 36.9667C47.6314 36.933 48.7555 35.3542 49.8412 33.7667C50.7968 32.3717 51.3239 31.0102 51.5352 30.3972C51.5981 30.2145 51.5169 30.0136 51.3442 29.9266Z" fill="#D6D6D8"/>
<path d="M34.2285 33.7038C33.7524 33.0152 33.3005 32.2051 32.9058 31.3187C32.9058 31.3187 32.9058 31.3188 32.9057 31.3189C32.8594 31.215 32.8043 31.0874 32.769 31.0035C32.769 31.0035 32.769 31.0035 32.769 31.0034C31.4149 27.7896 30.8235 23.6309 32.5786 20.5847C33.6313 18.7576 35.4485 17.5494 37.4614 17.3499C37.2819 17.3283 37.1009 17.317 36.9186 17.3204C34.7082 17.3525 32.6722 18.6063 31.5323 20.5847C29.7835 23.6201 30.3602 27.7696 31.7227 31.0034C31.7227 31.0035 31.7227 31.0035 31.7227 31.0035C31.7575 31.0863 31.8131 31.215 31.8594 31.3189C31.8595 31.3188 31.8595 31.3188 31.8595 31.3187C32.2542 32.2051 32.7061 33.0152 33.1822 33.7038C34.2753 35.2838 35.5794 37.0638 37.2929 36.9984C37.4615 36.9917 37.619 36.9749 37.7687 36.9507C36.3312 36.6591 35.1969 35.1035 34.2285 33.7038Z" fill="#C2C2C4"/>
</g>
<defs>
<clipPath id="clip0_26_509">
<rect width="26" height="26" fill="white" transform="translate(28 11)"/>
</clipPath>
</defs>
</svg>
