<svg width="21" height="21" viewBox="0 0 21 21" fill="none" xmlns="http://www.w3.org/2000/svg">
<path d="M21 10.5C21 16.2991 16.2991 21 10.5 21C4.70093 21 0 16.2991 0 10.5C0 4.70094 4.70093 0 10.5 0C16.2991 0 21 4.70094 21 10.5Z" fill="#4A7AFF"/>
<path d="M10.9608 20.9896C16.546 20.7485 21 16.1448 21 10.5004C21 10.4595 20.9989 10.4188 20.9984 10.378L13.71 3.08936L5.91699 11.2348L10.2469 15.5647L8.2504 18.2792L10.9608 20.9896Z" fill="#0053BF"/>
<path d="M13.7101 3.08941V5.46704C13.7101 5.46704 10.9803 5.07082 10.9803 6.83193V8.59304H13.4459L13.1378 11.2788H10.9803V18.2793H8.25056V11.2788L5.91699 11.2347V8.59304H8.2065V6.56773C8.2065 6.56773 8.05541 3.55484 11.0244 3.00145C12.2573 2.77154 13.7101 3.08941 13.7101 3.08941Z" fill="white"/>
<path d="M13.7099 5.46704V3.08941C13.7099 3.08941 12.257 2.77154 11.0242 3.00145C10.8316 3.03734 10.6525 3.08381 10.4854 3.13876V18.2793H10.9801V11.2788H13.1374L13.4457 8.59304H10.9801C10.9801 8.59304 10.9801 8.59304 10.9801 6.83193C10.9801 5.07082 13.7099 5.46704 13.7099 5.46704Z" fill="#DCE1EB"/>
</svg>
