<svg width="183" height="52" viewBox="0 0 183 52" fill="none" xmlns="http://www.w3.org/2000/svg">
<rect opacity="0.1" x="1" y="1" width="181" height="50" rx="6" stroke="#150C01" stroke-width="2"/>
<path d="M74.875 30.5234C74.4635 31.0599 73.8932 31.4661 73.1641 31.7422C72.4349 32.0182 71.6068 32.1562 70.6797 32.1562C69.7266 32.1562 68.8828 31.9401 68.1484 31.5078C67.4141 31.0755 66.8464 30.4583 66.4453 29.6562C66.0495 28.849 65.8438 27.9089 65.8281 26.8359V25.9453C65.8281 24.2266 66.2396 22.8854 67.0625 21.9219C67.8854 20.9531 69.0339 20.4688 70.5078 20.4688C71.7734 20.4688 72.7786 20.7812 73.5234 21.4062C74.2682 22.0312 74.7161 22.9323 74.8672 24.1094H72.9297C72.7109 22.7396 71.9167 22.0547 70.5469 22.0547C69.6615 22.0547 68.987 22.375 68.5234 23.0156C68.0651 23.651 67.8281 24.5859 67.8125 25.8203V26.6953C67.8125 27.9245 68.0703 28.8802 68.5859 29.5625C69.1068 30.2396 69.8281 30.5781 70.75 30.5781C71.7604 30.5781 72.4792 30.349 72.9062 29.8906V27.6641H70.5625V26.1641H74.875V30.5234ZM76.5078 27.6953C76.5078 26.8672 76.6719 26.1224 77 25.4609C77.3281 24.7943 77.7891 24.2839 78.3828 23.9297C78.9766 23.5703 79.6589 23.3906 80.4297 23.3906C81.5703 23.3906 82.4948 23.7578 83.2031 24.4922C83.9167 25.2266 84.3021 26.2005 84.3594 27.4141L84.3672 27.8594C84.3672 28.6927 84.2057 29.4375 83.8828 30.0938C83.5651 30.75 83.1068 31.2578 82.5078 31.6172C81.9141 31.9766 81.2266 32.1562 80.4453 32.1562C79.2526 32.1562 78.2969 31.7604 77.5781 30.9688C76.8646 30.1719 76.5078 29.112 76.5078 27.7891V27.6953ZM78.4062 27.8594C78.4062 28.7292 78.5859 29.4115 78.9453 29.9062C79.3047 30.3958 79.8047 30.6406 80.4453 30.6406C81.0859 30.6406 81.5833 30.3906 81.9375 29.8906C82.2969 29.3906 82.4766 28.6589 82.4766 27.6953C82.4766 26.8411 82.2917 26.1641 81.9219 25.6641C81.5573 25.1641 81.0599 24.9141 80.4297 24.9141C79.8099 24.9141 79.3177 25.1615 78.9531 25.6562C78.5885 26.1458 78.4062 26.8802 78.4062 27.8594ZM85.6172 27.6953C85.6172 26.8672 85.7812 26.1224 86.1094 25.4609C86.4375 24.7943 86.8984 24.2839 87.4922 23.9297C88.0859 23.5703 88.7682 23.3906 89.5391 23.3906C90.6797 23.3906 91.6042 23.7578 92.3125 24.4922C93.026 25.2266 93.4115 26.2005 93.4688 27.4141L93.4766 27.8594C93.4766 28.6927 93.3151 29.4375 92.9922 30.0938C92.6745 30.75 92.2161 31.2578 91.6172 31.6172C91.0234 31.9766 90.3359 32.1562 89.5547 32.1562C88.362 32.1562 87.4062 31.7604 86.6875 30.9688C85.974 30.1719 85.6172 29.112 85.6172 27.7891V27.6953ZM87.5156 27.8594C87.5156 28.7292 87.6953 29.4115 88.0547 29.9062C88.4141 30.3958 88.9141 30.6406 89.5547 30.6406C90.1953 30.6406 90.6927 30.3906 91.0469 29.8906C91.4062 29.3906 91.5859 28.6589 91.5859 27.6953C91.5859 26.8411 91.401 26.1641 91.0312 25.6641C90.6667 25.1641 90.1693 24.9141 89.5391 24.9141C88.9193 24.9141 88.4271 25.1615 88.0625 25.6562C87.6979 26.1458 87.5156 26.8802 87.5156 27.8594ZM94.75 27.7109C94.75 26.3984 95.0573 25.3516 95.6719 24.5703C96.2917 23.7839 97.112 23.3906 98.1328 23.3906C99.0964 23.3906 99.8542 23.7266 100.406 24.3984L100.492 23.5469H102.203V31.7422C102.203 32.8516 101.857 33.7266 101.164 34.3672C100.477 35.0078 99.5469 35.3281 98.375 35.3281C97.7552 35.3281 97.1484 35.1979 96.5547 34.9375C95.9661 34.6823 95.5182 34.3464 95.2109 33.9297L96.1094 32.7891C96.6927 33.4818 97.4115 33.8281 98.2656 33.8281C98.8958 33.8281 99.3932 33.6562 99.7578 33.3125C100.122 32.974 100.305 32.474 100.305 31.8125V31.2422C99.7578 31.8516 99.0286 32.1562 98.1172 32.1562C97.1276 32.1562 96.3177 31.763 95.6875 30.9766C95.0625 30.1901 94.75 29.1016 94.75 27.7109ZM96.6406 27.875C96.6406 28.724 96.8125 29.3932 97.1562 29.8828C97.5052 30.3672 97.987 30.6094 98.6016 30.6094C99.3672 30.6094 99.9349 30.2812 100.305 29.625V25.9062C99.9453 25.2656 99.3828 24.9453 98.6172 24.9453C97.9922 24.9453 97.5052 25.1927 97.1562 25.6875C96.8125 26.1823 96.6406 26.9115 96.6406 27.875ZM106.18 32H104.281V20H106.18V32ZM111.977 32.1562C110.773 32.1562 109.797 31.7786 109.047 31.0234C108.302 30.263 107.93 29.2526 107.93 27.9922V27.7578C107.93 26.9141 108.091 26.1615 108.414 25.5C108.742 24.8333 109.201 24.3151 109.789 23.9453C110.378 23.5755 111.034 23.3906 111.758 23.3906C112.909 23.3906 113.797 23.7578 114.422 24.4922C115.052 25.2266 115.367 26.2656 115.367 27.6094V28.375H109.844C109.901 29.0729 110.133 29.625 110.539 30.0312C110.951 30.4375 111.466 30.6406 112.086 30.6406C112.956 30.6406 113.664 30.2891 114.211 29.5859L115.234 30.5625C114.896 31.0677 114.443 31.4609 113.875 31.7422C113.312 32.0182 112.68 32.1562 111.977 32.1562ZM111.75 24.9141C111.229 24.9141 110.807 25.0964 110.484 25.4609C110.167 25.8255 109.964 26.3333 109.875 26.9844H113.492V26.8438C113.451 26.2083 113.281 25.7292 112.984 25.4062C112.688 25.0781 112.276 24.9141 111.75 24.9141ZM122.992 27.7734V32H121.016V20.625H125.367C126.638 20.625 127.646 20.9557 128.391 21.6172C129.141 22.2786 129.516 23.1536 129.516 24.2422C129.516 25.3568 129.148 26.224 128.414 26.8438C127.685 27.4635 126.661 27.7734 125.344 27.7734H122.992ZM122.992 26.1875H125.367C126.07 26.1875 126.607 26.0234 126.977 25.6953C127.346 25.362 127.531 24.8828 127.531 24.2578C127.531 23.6432 127.344 23.1536 126.969 22.7891C126.594 22.4193 126.078 22.2292 125.422 22.2188H122.992V26.1875ZM133.086 32H131.188V20H133.086V32ZM140.211 32C140.128 31.8385 140.055 31.5755 139.992 31.2109C139.388 31.8411 138.648 32.1562 137.773 32.1562C136.924 32.1562 136.232 31.9141 135.695 31.4297C135.159 30.9453 134.891 30.3464 134.891 29.6328C134.891 28.7318 135.224 28.0417 135.891 27.5625C136.562 27.0781 137.521 26.8359 138.766 26.8359H139.93V26.2812C139.93 25.8438 139.807 25.4948 139.562 25.2344C139.318 24.9688 138.945 24.8359 138.445 24.8359C138.013 24.8359 137.659 24.9453 137.383 25.1641C137.107 25.3776 136.969 25.651 136.969 25.9844H135.07C135.07 25.5208 135.224 25.0885 135.531 24.6875C135.839 24.2812 136.255 23.9635 136.781 23.7344C137.312 23.5052 137.904 23.3906 138.555 23.3906C139.544 23.3906 140.333 23.6406 140.922 24.1406C141.51 24.6354 141.812 25.3333 141.828 26.2344V30.0469C141.828 30.8073 141.935 31.4141 142.148 31.8672V32H140.211ZM138.125 30.6328C138.5 30.6328 138.852 30.5417 139.18 30.3594C139.513 30.1771 139.763 29.9323 139.93 29.625V28.0312H138.906C138.203 28.0312 137.674 28.1536 137.32 28.3984C136.966 28.6432 136.789 28.9896 136.789 29.4375C136.789 29.8021 136.909 30.0938 137.148 30.3125C137.393 30.526 137.719 30.6328 138.125 30.6328ZM146.648 29.2812L148.367 23.5469H150.391L147.031 33.2812C146.516 34.7031 145.641 35.4141 144.406 35.4141C144.13 35.4141 143.826 35.3672 143.492 35.2734V33.8047L143.852 33.8281C144.331 33.8281 144.69 33.7396 144.93 33.5625C145.174 33.3906 145.367 33.099 145.508 32.6875L145.781 31.9609L142.812 23.5469H144.859L146.648 29.2812Z" fill="#150C01"/>
<g clip-path="url(#clip0_26_522)">
<path d="M49.4249 25.9999L33.4115 13.5772C32.7983 14.0568 32.3853 14.8017 32.3853 15.6898V36.31C32.3853 37.1981 32.7983 37.943 33.4115 38.4219L49.4249 25.9999Z" fill="#9DC6FB"/>
<path d="M54.2718 23.6738L50.3971 21.4366L47.001 21.8612L45.8345 25.9999L46.4269 29.9622L50.3971 30.5625L54.2718 28.3259C56.0627 27.292 56.0627 24.7077 54.2718 23.6738Z" fill="#FFE07D"/>
<path d="M50.3969 21.4367L36.4142 13.3638C35.3924 12.7743 34.2255 12.9412 33.4116 13.5774L45.8342 26L50.3969 21.4367Z" fill="#DD5790"/>
<path d="M50.3969 30.5627L45.8342 26L33.4116 38.422C34.2255 39.0589 35.3924 39.2258 36.4142 38.6362L50.3969 30.5627Z" fill="#95D6A4"/>
<path d="M35.4127 15.6898C35.4127 15.5093 35.4294 15.3351 35.4618 15.1677L33.4116 13.5773C32.7985 14.0565 32.3853 14.8014 32.3853 15.6898V36.3099C32.3853 37.1977 32.7986 37.9427 33.4116 38.4219L35.4618 36.8315C35.4294 36.6641 35.4127 36.4899 35.4127 36.3099V15.6898Z" fill="#80B4FB"/>
<path d="M36.5924 13.466L36.4145 13.3635C35.3928 12.7744 34.2256 12.9413 33.4116 13.5774L35.4147 15.5806C35.4472 14.7404 35.8511 14.0368 36.4385 13.5774H36.439C36.4888 13.5388 36.5401 13.5011 36.5924 13.466Z" fill="#DA387D"/>
<path d="M36.439 38.4222L36.4396 38.4212L36.4385 38.4222C35.8505 37.9629 35.4471 37.2587 35.4147 36.4191L33.4116 38.4222C34.2256 39.0589 35.3928 39.2258 36.4144 38.6362L36.5923 38.5337C36.54 38.4986 36.4887 38.4609 36.439 38.4222Z" fill="#78C2A4"/>
</g>
<defs>
<clipPath id="clip0_26_522">
<rect width="26" height="26" fill="white" transform="matrix(1 0 0 -1 31 39)"/>
</clipPath>
</defs>
</svg>
