<svg width="88" height="88" viewBox="0 0 88 88" fill="none" xmlns="http://www.w3.org/2000/svg">
<circle opacity="0.1" cx="44" cy="44" r="44" fill="#8FA632"/>
<path d="M25.9424 30.2331C25.5198 29.4881 25.8852 28.592 26.7588 28.2316C27.0439 28.114 27.3476 28.0692 27.6424 28.0864C27.9205 27.5591 28.4088 27.109 29.0667 26.8375C30.554 26.2238 32.3429 26.7547 33.0625 28.0231C33.2364 28.3296 33.3313 28.6513 33.3551 28.9713C34.0189 28.9525 34.6651 29.2609 34.973 29.8036C35.3896 30.538 35.0294 31.4213 34.1682 31.7766C33.3862 32.0993 32.4617 31.8742 31.9862 31.2802C31.8863 31.3349 31.7821 31.3855 31.6725 31.4308C30.4967 31.9159 29.1328 31.6853 28.2573 30.9408C27.3903 31.281 26.36 30.969 25.9424 30.2331Z" fill="url(#paint0_linear_100_367)"/>
<path d="M26.3844 27.5046C27.1953 27.5046 27.8527 26.9439 27.8527 26.2523C27.8527 25.5607 27.1953 25 26.3844 25C25.5734 25 24.916 25.5607 24.916 26.2523C24.916 26.9439 25.5734 27.5046 26.3844 27.5046Z" fill="url(#paint1_linear_100_367)"/>
<path d="M35.1076 37.6037H31.5661C31.065 37.6037 30.6587 37.2572 30.6587 36.8298V32.0122C30.6587 31.5848 31.065 31.2383 31.5661 31.2383H35.1076C35.6088 31.2383 36.015 31.5848 36.015 32.0122V36.8298C36.0151 37.2572 35.6088 37.6037 35.1076 37.6037Z" fill="url(#paint2_linear_100_367)"/>
<path d="M33.9856 51.3403H23.4102V62.9151H33.9856V51.3403Z" fill="url(#paint3_linear_100_367)"/>
<path d="M34.426 53.8205H23.4337C22.9833 53.8205 22.6608 53.4496 22.7915 53.082L23.8824 50.0176C23.9682 49.7764 24.2289 49.6116 24.5245 49.6116H34.4261V53.8205H34.426Z" fill="url(#paint4_linear_100_367)"/>
<path d="M65.5354 51.3403H54.96V62.9151H65.5354V51.3403Z" fill="url(#paint5_linear_100_367)"/>
<path d="M65.5353 59.8827L58.43 53.8228H54.96V62.915H65.5353V59.8827Z" fill="url(#paint6_linear_100_367)"/>
<path d="M54.5195 53.8205H65.5119C65.9623 53.8205 66.2847 53.4496 66.154 53.082L65.0632 50.0176C64.9774 49.7764 64.7166 49.6116 64.4211 49.6116H54.5195V53.8205Z" fill="url(#paint7_linear_100_367)"/>
<path d="M58.4358 38.9672V62.9149H30.5132V38.9672L44.4727 27.2947L58.4358 38.9672Z" fill="url(#paint8_linear_100_367)"/>
<path d="M30.5132 38.9672V40.3392L56.9839 62.9149H58.4358V38.9672L44.4727 27.2947L30.5132 38.9672Z" fill="url(#paint9_linear_100_367)"/>
<path d="M58.4358 46.2046V62.915H49.6203L30.5132 46.6194V46.2046H58.4358Z" fill="url(#paint10_linear_100_367)"/>
<path d="M54.1215 62.9151H40.4654L32.9586 56.5129C32.6281 56.3301 32.4082 56.0131 32.4082 55.6534V50.5007C32.4082 49.9362 32.9471 49.4766 33.609 49.4766H37.9648C38.3874 49.4766 38.7592 49.6642 38.9735 49.946L38.9408 49.9681L54.1215 62.9151Z" fill="url(#paint11_linear_100_367)"/>
<path d="M37.9645 56.0771H33.6091C33.3344 56.0771 33.1118 55.8873 33.1118 55.653V50.501C33.1118 50.2668 33.3345 50.0769 33.6091 50.0769H37.9645C38.2392 50.0769 38.4618 50.2668 38.4618 50.501V55.653C38.4619 55.8873 38.2392 56.0771 37.9645 56.0771Z" fill="#503837"/>
<path d="M37.9649 56.6775H33.6094C32.9471 56.6775 32.4082 56.2179 32.4082 55.653V50.501C32.4082 49.9362 32.9471 49.4766 33.6094 49.4766H37.9649C38.6272 49.4766 39.1661 49.9362 39.1661 50.501V55.653C39.1662 56.2179 38.6273 56.6775 37.9649 56.6775ZM33.8162 55.4767H37.7582V50.6772H33.8162V55.4767Z" fill="white"/>
<path d="M58.4369 51.6019V62.9151H58.0084L50.5017 56.5129C50.1702 56.3301 49.9502 56.0131 49.9502 55.6534V50.5007C49.9502 49.9362 50.4891 49.4766 51.152 49.4766H55.5068C55.9294 49.4766 56.3012 49.6642 56.5155 49.946L56.5328 49.9575L56.5212 49.9682L58.4369 51.6019Z" fill="url(#paint12_linear_100_367)"/>
<path d="M55.507 56.0771H51.1516C50.8769 56.0771 50.6543 55.8873 50.6543 55.653V50.501C50.6543 50.2668 50.8769 50.0769 51.1516 50.0769H55.507C55.7817 50.0769 56.0043 50.2668 56.0043 50.501V55.653C56.0044 55.8873 55.7817 56.0771 55.507 56.0771Z" fill="#503837"/>
<path d="M55.5068 56.6775H51.1514C50.4891 56.6775 49.9502 56.2179 49.9502 55.653V50.501C49.9502 49.9362 50.4891 49.4766 51.1514 49.4766H55.5068C56.1692 49.4766 56.7081 49.9362 56.7081 50.501V55.653C56.7081 56.2179 56.1692 56.6775 55.5068 56.6775ZM51.358 55.4767H55.3V50.6772H51.358V55.4767Z" fill="white"/>
<path d="M41.5649 62.9146V49.905C41.5649 49.3311 42.1103 48.866 42.7832 48.866H46.1661C46.8389 48.866 47.3843 49.3311 47.3843 49.905V62.9146H41.5649Z" fill="#816965"/>
<path d="M48.1051 62.9148H46.664V50.2594C46.664 49.8312 46.2532 49.4807 45.751 49.4807H43.1987C42.6945 49.4807 42.2857 49.8293 42.2857 50.2594V62.9148H40.8447V49.4467C40.8447 48.7867 41.472 48.2517 42.2459 48.2517H46.7039C47.4777 48.2517 48.105 48.7867 48.105 49.4467V62.9148H48.1051Z" fill="#503837"/>
<path d="M43.4426 54.3096C43.8055 54.3096 44.0996 54.0587 44.0996 53.7493C44.0996 53.4398 43.8055 53.189 43.4426 53.189C43.0798 53.189 42.7856 53.4398 42.7856 53.7493C42.7856 54.0587 43.0798 54.3096 43.4426 54.3096Z" fill="white"/>
<path d="M58.4366 59.636H30.5122V62.9146H58.4366V59.636Z" fill="#654E48"/>
<path d="M30.2066 61.6336C30.2066 62.086 30.1063 62.5178 29.923 62.9147H22.2836C22.1003 62.5178 22 62.086 22 61.6336C22 61.193 22.0952 60.7718 22.2697 60.3837C22.8595 59.0676 24.3536 58.134 26.1034 58.134C27.8532 58.134 29.3472 59.0677 29.9371 60.3837C30.1114 60.7718 30.2066 61.193 30.2066 61.6336Z" fill="url(#paint13_linear_100_367)"/>
<path d="M32.8525 61.9854C32.8525 62.3136 32.7797 62.6268 32.6468 62.9147H27.1051C26.9722 62.6268 26.8994 62.3136 26.8994 61.9854C26.8994 61.6658 26.9685 61.3602 27.0951 61.0787C27.5229 60.124 28.6067 59.4468 29.8761 59.4468C31.1454 59.4468 32.2292 60.124 32.6571 61.0787C32.7834 61.3602 32.8525 61.6658 32.8525 61.9854Z" fill="url(#paint14_linear_100_367)"/>
<path d="M66.9453 61.4212C66.9453 61.9486 66.8283 62.4519 66.6147 62.9145H57.7095C57.496 62.452 57.3789 61.9486 57.3789 61.4212C57.3789 60.9076 57.49 60.4167 57.6933 59.9642C58.3809 58.4301 60.1224 57.3418 62.1621 57.3418C64.2018 57.3418 65.9433 58.4301 66.6309 59.9642C66.8342 60.4167 66.9453 60.9076 66.9453 61.4212Z" fill="url(#paint15_linear_100_367)"/>
<path d="M58.4358 42.3928V55.0852L40.4743 39.766C40.1218 39.5849 39.8848 39.2563 39.8848 38.8806V36.0027C39.8848 33.8455 41.9435 32.0906 44.4727 32.0906C45.8422 32.0906 47.0734 32.6062 47.915 33.4201L58.4358 42.3928Z" fill="url(#paint16_linear_100_367)"/>
<path d="M56.3894 41.158H32.9178C32.3581 41.158 31.9028 41.5463 31.9028 42.0236V45.8667H32.6078V42.0236C32.6078 41.8778 32.7469 41.7592 32.9178 41.7592H34.3218V45.8667H35.0268V41.7592H37.1213V45.8667H37.8262V41.7592H39.9207V45.8667H40.6257V41.7592H42.7201V45.8667H43.4251V41.7592H45.5197V45.8667H46.2246V41.7592H48.3191V45.8667H49.0241V41.7592H51.1185V45.8667H51.8235V41.7592H53.918V45.8667H54.623V41.7592H56.389C56.5599 41.7592 56.699 41.8778 56.699 42.0236V45.8667H57.404V42.0236C57.4043 41.5463 56.949 41.158 56.3894 41.158Z" fill="#654E48"/>
<path d="M59.0148 45.2429V47.1707C59.0148 47.4572 58.7425 47.6895 58.4065 47.6895H30.5394C30.2035 47.6895 29.9312 47.4572 29.9312 47.1707V45.2429C29.9312 44.9564 30.2035 44.7241 30.5394 44.7241H58.4065C58.7425 44.7241 59.0148 44.9564 59.0148 45.2429Z" fill="url(#paint17_linear_100_367)"/>
<path d="M63.435 41.0548L45.4055 25.6732C44.8916 25.2349 44.0584 25.2349 43.5445 25.6732L25.5105 41.0535C25.1742 41.3403 25.1742 41.8051 25.5105 42.0919L26.279 42.7473C26.6152 43.0341 27.1603 43.0341 27.4965 42.7473L44.2299 28.4761C44.3652 28.3608 44.5846 28.3608 44.7198 28.4761L61.4489 42.7485C61.7851 43.0353 62.3301 43.0353 62.6664 42.7485L63.4349 42.0931C63.7712 41.8064 63.7712 41.3416 63.435 41.0548Z" fill="url(#paint18_linear_100_367)"/>
<path d="M45.4056 25.6731C45.1487 25.454 44.8119 25.3445 44.4751 25.3445V28.3897C44.5638 28.3897 44.6524 28.4186 44.7201 28.4763L61.4491 42.7486C61.7853 43.0354 62.3303 43.0354 62.6665 42.7486L63.4351 42.0932C63.7713 41.8064 63.7713 41.3416 63.4351 41.0549L45.4056 25.6731Z" fill="url(#paint19_linear_100_367)"/>
<path d="M47.8464 39.291H41.0989C40.8328 39.291 40.6172 39.1071 40.6172 38.8802V36.0028C40.6172 34.1868 42.3434 32.7146 44.4728 32.7146C46.6021 32.7146 48.3283 34.1868 48.3283 36.0028V38.8802C48.3282 39.1071 48.1124 39.291 47.8464 39.291Z" fill="#654E48"/>
<path d="M44.4728 32.0903C41.9432 32.0903 39.8853 33.8455 39.8853 36.0028V38.8801C39.8853 39.451 40.4297 39.9153 41.099 39.9153H47.8466C48.5159 39.9153 49.0604 39.451 49.0604 38.8801V36.0028C49.0603 33.8454 47.0024 32.0903 44.4728 32.0903ZM47.5709 35.6699H45.2049V33.4136C46.4516 33.6701 47.4087 34.5658 47.5709 35.6699ZM43.7406 33.4136V35.6699H41.3746C41.5368 34.5658 42.4938 33.6701 43.7406 33.4136ZM41.3493 36.9186H43.7406V38.6667H41.3493V36.9186ZM45.2049 38.6667V36.9186H47.5962V38.6667H45.2049Z" fill="white"/>
<defs>
<linearGradient id="paint0_linear_100_367" x1="24.2444" y1="27.4051" x2="40.8632" y2="34.1844" gradientUnits="userSpaceOnUse">
<stop stop-color="#E2EDF2"/>
<stop offset="1" stop-color="#9FC7E2"/>
</linearGradient>
<linearGradient id="paint1_linear_100_367" x1="25.9081" y1="26.1118" x2="28.355" y2="27.1102" gradientUnits="userSpaceOnUse">
<stop stop-color="#E2EDF2"/>
<stop offset="1" stop-color="#9FC7E2"/>
</linearGradient>
<linearGradient id="paint2_linear_100_367" x1="31.902" y1="33.1987" x2="33.3984" y2="34.9523" gradientUnits="userSpaceOnUse">
<stop stop-color="#816965"/>
<stop offset="1" stop-color="#654E48"/>
</linearGradient>
<linearGradient id="paint3_linear_100_367" x1="28.6977" y1="52.807" x2="28.6977" y2="63.0857" gradientUnits="userSpaceOnUse">
<stop stop-color="#FFE7A5"/>
<stop offset="0.966" stop-color="#FFBF5C"/>
</linearGradient>
<linearGradient id="paint4_linear_100_367" x1="28.594" y1="50.1449" x2="28.594" y2="53.8833" gradientUnits="userSpaceOnUse">
<stop stop-color="#FF5D00"/>
<stop offset="1" stop-color="#D54003"/>
</linearGradient>
<linearGradient id="paint5_linear_100_367" x1="60.2468" y1="52.807" x2="60.2468" y2="63.0857" gradientUnits="userSpaceOnUse">
<stop stop-color="#FFE7A5"/>
<stop offset="0.966" stop-color="#FFBF5C"/>
</linearGradient>
<linearGradient id="paint6_linear_100_367" x1="60" y1="60.8815" x2="50.5979" y2="51.0572" gradientUnits="userSpaceOnUse">
<stop stop-color="#FF5D00" stop-opacity="0"/>
<stop offset="1" stop-color="#D54003"/>
</linearGradient>
<linearGradient id="paint7_linear_100_367" x1="60.3506" y1="50.1449" x2="60.3506" y2="53.8833" gradientUnits="userSpaceOnUse">
<stop stop-color="#FF5D00"/>
<stop offset="1" stop-color="#D54003"/>
</linearGradient>
<linearGradient id="paint8_linear_100_367" x1="44.474" y1="45.352" x2="44.474" y2="70.5672" gradientUnits="userSpaceOnUse">
<stop stop-color="#FFE7A5"/>
<stop offset="0.966" stop-color="#FFBF5C"/>
<stop offset="1" stop-color="#DB9E36"/>
</linearGradient>
<linearGradient id="paint9_linear_100_367" x1="41.4564" y1="37.0801" x2="34.6492" y2="29.0985" gradientUnits="userSpaceOnUse">
<stop stop-color="#FF5D00" stop-opacity="0"/>
<stop offset="1" stop-color="#D54003"/>
</linearGradient>
<linearGradient id="paint10_linear_100_367" x1="45.5251" y1="51.9766" x2="43.2086" y2="35.1171" gradientUnits="userSpaceOnUse">
<stop stop-color="#FF5D00" stop-opacity="0"/>
<stop offset="1" stop-color="#D54003"/>
</linearGradient>
<linearGradient id="paint11_linear_100_367" x1="41.2267" y1="57.7165" x2="30.6181" y2="45.2776" gradientUnits="userSpaceOnUse">
<stop stop-color="#FF5D00" stop-opacity="0"/>
<stop offset="1" stop-color="#D54003"/>
</linearGradient>
<linearGradient id="paint12_linear_100_367" x1="56.6993" y1="55.9516" x2="49.907" y2="47.9874" gradientUnits="userSpaceOnUse">
<stop stop-color="#FF5D00" stop-opacity="0"/>
<stop offset="1" stop-color="#D54003"/>
</linearGradient>
<linearGradient id="paint13_linear_100_367" x1="23.7892" y1="59.455" x2="28.0535" y2="64.4545" gradientUnits="userSpaceOnUse">
<stop stop-color="#9EB644"/>
<stop offset="1" stop-color="#738611"/>
</linearGradient>
<linearGradient id="paint14_linear_100_367" x1="28.1971" y1="60.4047" x2="31.2905" y2="64.0318" gradientUnits="userSpaceOnUse">
<stop stop-color="#9EB644"/>
<stop offset="1" stop-color="#738611"/>
</linearGradient>
<linearGradient id="paint15_linear_100_367" x1="59.464" y1="58.8814" x2="64.4342" y2="64.71" gradientUnits="userSpaceOnUse">
<stop stop-color="#9EB644"/>
<stop offset="1" stop-color="#738611"/>
</linearGradient>
<linearGradient id="paint16_linear_100_367" x1="50.8878" y1="42.3186" x2="40.0128" y2="29.5672" gradientUnits="userSpaceOnUse">
<stop stop-color="#FF5D00" stop-opacity="0"/>
<stop offset="1" stop-color="#D54003"/>
</linearGradient>
<linearGradient id="paint17_linear_100_367" x1="44.4725" y1="45.04" x2="44.4725" y2="48.9739" gradientUnits="userSpaceOnUse">
<stop stop-color="#FF5D00"/>
<stop offset="1" stop-color="#D54003"/>
</linearGradient>
<linearGradient id="paint18_linear_100_367" x1="44.4722" y1="35.7489" x2="44.4722" y2="49.1039" gradientUnits="userSpaceOnUse">
<stop stop-color="#FF5D00"/>
<stop offset="1" stop-color="#D54003"/>
</linearGradient>
<linearGradient id="paint19_linear_100_367" x1="57.9408" y1="38.12" x2="49.9699" y2="28.774" gradientUnits="userSpaceOnUse">
<stop stop-color="#FF5D00" stop-opacity="0"/>
<stop offset="1" stop-color="#D54003"/>
</linearGradient>
</defs>
</svg>
