<svg width="88" height="83" viewBox="0 0 88 83" fill="none" xmlns="http://www.w3.org/2000/svg">
<path d="M0 0H88V42.4734C88 64.5648 70.0914 82.4734 48 82.4734H40C17.9086 82.4734 0 64.5648 0 42.4734V0Z" fill="#F18A2B"/>
<path d="M37.5799 31.7061L32.5999 45.7461H28.3199L23.3399 31.7061H26.9799L30.4599 42.3061L33.9599 31.7061H37.5799ZM40.7292 33.4261C40.1292 33.4261 39.6359 33.2528 39.2492 32.9061C38.8759 32.5461 38.6892 32.1061 38.6892 31.5861C38.6892 31.0528 38.8759 30.6128 39.2492 30.2661C39.6359 29.9061 40.1292 29.7261 40.7292 29.7261C41.3159 29.7261 41.7959 29.9061 42.1692 30.2661C42.5559 30.6128 42.7492 31.0528 42.7492 31.5861C42.7492 32.1061 42.5559 32.5461 42.1692 32.9061C41.7959 33.2528 41.3159 33.4261 40.7292 33.4261ZM42.4292 34.5861V45.7461H39.0092V34.5861H42.4292ZM59.1477 34.4661C60.5343 34.4661 61.6344 34.8861 62.4477 35.7261C63.2744 36.5661 63.6877 37.7328 63.6877 39.2261V45.7461H60.2877V39.6861C60.2877 38.9661 60.0944 38.4128 59.7077 38.0261C59.3344 37.6261 58.8144 37.4261 58.1477 37.4261C57.481 37.4261 56.9543 37.6261 56.5677 38.0261C56.1944 38.4128 56.0077 38.9661 56.0077 39.6861V45.7461H52.6077V39.6861C52.6077 38.9661 52.4143 38.4128 52.0277 38.0261C51.6543 37.6261 51.1343 37.4261 50.4677 37.4261C49.801 37.4261 49.2743 37.6261 48.8877 38.0261C48.5143 38.4128 48.3277 38.9661 48.3277 39.6861V45.7461H44.9077V34.5861H48.3277V35.9861C48.6743 35.5194 49.1277 35.1528 49.6877 34.8861C50.2477 34.6061 50.881 34.4661 51.5877 34.4661C52.4277 34.4661 53.1743 34.6461 53.8277 35.0061C54.4943 35.3661 55.0143 35.8794 55.3877 36.5461C55.7743 35.9328 56.301 35.4328 56.9677 35.0461C57.6343 34.6594 58.361 34.4661 59.1477 34.4661Z" fill="white"/>
</svg>
