<svg width="88" height="88" viewBox="0 0 88 88" fill="none" xmlns="http://www.w3.org/2000/svg">
<circle opacity="0.1" cx="44" cy="44" r="44" fill="#DC780B"/>
<path d="M43.7554 22.002V66.3469C56.6165 66.2184 67 56.3404 67 44.1744C67 32.0085 56.6165 22.1304 43.7554 22.002Z" fill="#FFBB54"/>
<path d="M43.7553 22.0018C43.6702 22.0009 43.5851 22 43.5 22C30.5216 22 20 31.928 20 44.1742C20 56.4205 30.5216 66.3485 43.5 66.3485C43.5851 66.3485 43.6702 66.3476 43.7553 66.3467C54.5265 66.1932 63.2173 56.325 63.2173 44.1742C63.2173 32.0235 54.5265 22.1553 43.7553 22.0018Z" fill="#FFD45A"/>
<path d="M52.8149 41.5151L43.6201 52.6023H53.0664C54.6864 50.6543 55.6519 48.1986 55.6519 45.5306V44.1921C55.6519 42.7198 54.3753 41.5151 52.8149 41.5151Z" fill="#B74147"/>
<path d="M34.1852 41.5151C32.6248 41.5151 31.3481 42.7198 31.3481 44.1921V45.5306C31.3481 48.1986 32.3137 50.6543 33.9336 52.6023L51.6224 51.146C52.3818 49.4863 52.8149 47.5704 52.8149 45.5306V44.1924L34.1852 41.5151Z" fill="#FF3C1F"/>
<path d="M51.6224 51.146L43.6201 56.9961C47.4548 56.9613 50.864 55.2507 53.0664 52.6023C52.6305 52.0785 52.1473 51.5904 51.6224 51.146Z" fill="#FA4087"/>
<path d="M51.6224 51.1459C50.045 54.5983 47.0567 56.9425 43.6201 56.996C43.5804 56.9969 43.5397 56.9969 43.5 56.9969C39.6161 56.9969 36.1588 55.2783 33.9336 52.6022C36.1588 49.927 39.6161 48.2075 43.5 48.2075C46.6226 48.2075 49.4701 49.3194 51.6224 51.1459Z" fill="#FA71A3"/>
<path d="M49.9781 41.5151L48.5596 45.5306H51.3966C52.1768 45.5306 52.8151 44.9283 52.8151 44.1921V41.5151H49.9781Z" fill="#FFF7DF"/>
<path d="M49.9778 41.5151V44.1921C49.9778 44.9283 49.3395 45.5306 48.5593 45.5306H35.6036C34.8234 45.5306 34.1851 44.9283 34.1851 44.1921V41.5151H49.9778Z" fill="white"/>
<path d="M44.2093 60.3434H42.7908C42.399 60.3434 42.0815 60.0437 42.0815 59.6741C42.0815 59.3045 42.399 59.0049 42.7908 59.0049H44.2093C44.6011 59.0049 44.9186 59.3045 44.9186 59.6741C44.9186 60.0437 44.6011 60.3434 44.2093 60.3434Z" fill="#FFBB54"/>
<path d="M51.3965 32.1458C50.6164 32.1458 49.978 32.7481 49.978 33.4842V37.4997C49.978 38.2359 50.6164 38.8382 51.3965 38.8382C52.1767 38.8382 52.815 38.2359 52.815 37.4997V33.4842C52.815 32.7481 52.1767 32.1458 51.3965 32.1458Z" fill="#474867"/>
<path d="M35.6036 32.1467C34.8234 32.1467 34.1851 32.749 34.1851 33.4852V37.5007C34.1851 38.2368 34.8234 38.8392 35.6036 38.8392C36.3837 38.8392 37.0221 38.2368 37.0221 37.5007V33.4852C37.0221 32.749 36.3837 32.1467 35.6036 32.1467Z" fill="#474867"/>
</svg>
