<svg width="88" height="16" viewBox="0 0 88 16" fill="none" xmlns="http://www.w3.org/2000/svg">
<g clip-path="url(#clip0_166_360)">
<path d="M88 6.18155L82.1863 5.79933L79.9968 0.298828L77.8073 5.79933L72 6.18155L76.4542 9.96361L74.9926 15.7008L79.9968 12.5376L85.0011 15.7008L83.5395 9.96361L88 6.18155Z" fill="#EDEDED"/>
<path d="M88 5.88272L82.1863 5.5005L79.9968 0L77.8073 5.5005L72 5.88272L76.4542 9.66478L74.9926 15.4019L79.9968 12.2388L85.0011 15.4019L83.5395 9.66478L88 5.88272Z" fill="#DC780B"/>
</g>
<g clip-path="url(#clip1_166_360)">
<path d="M70 6.18155L64.1863 5.79933L61.9968 0.298828L59.8073 5.79933L54 6.18155L58.4542 9.96361L56.9926 15.7008L61.9968 12.5376L67.0011 15.7008L65.5395 9.96361L70 6.18155Z" fill="#DC780B"/>
</g>
<g clip-path="url(#clip2_166_360)">
<path d="M52 6.18155L46.1863 5.79933L43.9968 0.298828L41.8073 5.79933L36 6.18155L40.4542 9.96361L38.9926 15.7008L43.9968 12.5376L49.0011 15.7008L47.5395 9.96361L52 6.18155Z" fill="#DC780B"/>
</g>
<g clip-path="url(#clip3_166_360)">
<path d="M34 6.18155L28.1863 5.79933L25.9968 0.298828L23.8073 5.79933L18 6.18155L22.4542 9.96361L20.9926 15.7008L25.9968 12.5376L31.0011 15.7008L29.5395 9.96361L34 6.18155Z" fill="#DC780B"/>
</g>
<g clip-path="url(#clip4_166_360)">
<path d="M16 6.18155L10.1863 5.79933L7.99681 0.298828L5.80734 5.79933L0 6.18155L4.45419 9.96361L2.99256 15.7008L7.99681 12.5376L13.0011 15.7008L11.5395 9.96361L16 6.18155Z" fill="#DC780B"/>
</g>
<defs>
<clipPath id="clip0_166_360">
<rect width="16" height="16" fill="white" transform="translate(72)"/>
</clipPath>
<clipPath id="clip1_166_360">
<rect width="16" height="16" fill="white" transform="translate(54)"/>
</clipPath>
<clipPath id="clip2_166_360">
<rect width="16" height="16" fill="white" transform="translate(36)"/>
</clipPath>
<clipPath id="clip3_166_360">
<rect width="16" height="16" fill="white" transform="translate(18)"/>
</clipPath>
<clipPath id="clip4_166_360">
<rect width="16" height="16" fill="white"/>
</clipPath>
</defs>
</svg>
